<svg version="1.0" xmlns="http://www.w3.org/2000/svg" viewBox="0 0 447 425">
  <path d="M203.3 2.5c-.3.9-.3 3.7.1 6.4.6 4.4.3 5.2-2.8 9.3-5.2 6.7-16.1 12.4-27.8 14.3-2.4.4-6.1 1.8-8.3 3-2.2 1.3-9.5 4.1-16.2 6.4-6.8 2.2-14.4 5.1-17.1 6.5-2.7 1.3-7.7 3-11.2 3.6-10.7 1.9-10.4 1.5-9.5 13.9.4 5.8.8 13.5.8 17.1l.2 6.5-4.7.8c-5.2 1-5.6 1.5-6.5 9.9-.6 5.6 0 10.7 3.2 27.3 1.5 7.6 1.9 10.7 4 29.8.8 7 2.2 15.8 3.1 19.7.8 3.8 1.4 8.4 1.2 10.2l-.3 3.3-19.7.3-19.8.2v-8.2c0-8.3-2.1-15.4-4.5-15.2-2.5.2-5 7.1-5.5 14.9l-.5 8-30 .5-30 .5.3 26.9c.2 26.8 1.3 37.9 4.6 47.4.7 2.1 1.9 6.8 2.6 10.5 1.3 7.3 3.3 9.4 5.7 6.2 1.6-2.2.8-7.7-1.6-11.4-1-1.6-1.8-6.2-2.3-13.5-.4-6.1-1.3-18.1-2.1-26.6-.7-8.5-1.2-19.9-.9-25.2.5-11-.2-10.4 11.5-10.7 3.9-.1 9.1.5 12.4 1.4 4.2 1.2 6.2 1.4 8.2.6 1.6-.7 14.9-1.3 33.6-1.5 27.8-.4 32.8-.8 42.2-3.2.8-.2 1-3 .8-9.1-1.9-63.8-1.9-61.1-.2-63.6.9-1.4 3-2.7 4.9-3.1 1.8-.3 5.3-1 7.7-1.5 2.8-.6 5.5-.5 7.3.1 2.7 1 3.3.7 6.8-2.7 3.7-3.6 10-14.5 10-17.2 0-2.1-5.8-5.3-14.6-8.3-9.3-3.2-15.4-7.1-15.4-9.8 0-1 .7-2.8 1.6-4.1 1.5-2.1 2.2-2.3 7.3-1.7 5.3.5 83.2 2.1 89.7 1.8 1.7-.1 5-.9 7.4-1.7 3.9-1.4 4.5-1.4 6.2.2 1.7 1.5 1.9 1.5 3.1-.1 1.1-1.6 1.9-1.6 8.2-.5 4.9.8 11.6 1 22.5.4 20.9-1.1 40.2-1.5 41.8-1 1.9.7 0 3.8-4.9 8.2-3.2 2.9-3.9 4.1-3.4 6.2.5 2.6.5 2.6-6.1 2.8-11.7.3-21.4 6.7-18.5 12.2 1.5 2.8 4.5 2.7 6.4-.3 2.3-3.4 12.2-4.7 26.9-3.5 11.5 1 13.5 1.7 12.5 4.2-.7 1.8-8.3 2.9-22.8 3.2-10.9.2-18.9 1.8-18.9 3.7 0 .9.9 1.3 5.2 2.2 1.8.4 3 1.5 3.4 3 .8 3.2 8.6 6.8 14.1 6.5 3.4-.2 4.6.2 6.2 2.2 2.5 2.9 2.5 3 .5 7.7-1.1 2.6-1.3 5.3-.9 9.2.3 3 1 14.1 1.5 24.6.8 17.6 1 19.5 3.2 22.8 1.3 2 2.7 3.6 3.2 3.6s.5-8.2.1-19.8c-.5-10.8-.8-20.8-.7-22.2 1.6-23.2 1.1-21.3 9.5-37.4 4.2-8.2 7.7-15.7 7.7-16.7 0-2.7-3.1-3.9-13.2-5.4-5-.8-9.4-1.8-9.9-2.2-.7-.7 6.2-17.8 10.5-26.1 2.6-5.1 1.3-6.2-11.5-9.4-6.3-1.5-16.3-4.3-22.4-6.2-6-1.9-22.9-7.1-37.5-11.6-36.4-11.3-39-12.7-39-21.5 0-3-.6-6-1.6-7.3-1.8-2.5-6.2-3-7.1-.7zm17.6 36c1.8 5.6 3.8 7.2 3.2 2.5-.4-3.5 1.4-1.5 2.9 3.2.6 2.1 1.6 3.8 2.2 3.8.6 0 .7-.8.3-1.8-.4-.9-.9-3.2-1.2-5.1-.8-4.3 1.2-3.5 2.2.9.8 3.6 2.5 5 2.5 2.1 0-1.2.3-2.1.8-2.1 1.1 0 4.1 9 3.1 9.6-.5.3-1.2-.2-1.6-1.2-.6-1.6-.7-1.6-1.9.1-1.3 1.7-1.4 1.7-2 0-.7-1.7-.8-1.7-2 0-1.5 2-3.4 1.2-3.4-1.6 0-1-.4-1.9-1-1.9-.5 0-1 1.2-1 2.6 0 2.2-.3 2.4-1.4 1.5-1.1-.9-1.6-.9-2.2 0-.4.8-1.2.2-2.3-1.7-1.5-2.8-1.6-2.8-1.9-.7-.6 4.3-1.8 3.1-4.7-5.2-1.3-3.6-1.7.3-.5 4.1 1.7 5.2.3 5.4-1.9.3-2.4-5.5-3.9-14.5-2.2-13.5.6.4 1.1 1.6 1.1 2.6s.5 2.2 1 2.5c.6.4 1-.5 1-1.9s.5-2.6 1-2.6c.6 0 1 .6 1 1.4 0 .8 1 1.6 2.2 1.8 1.5.2 2.6 1.6 3.7 5 3.1 9 4.2 6.7 1.6-3.2-2.7-9.9-1.5-11.1 1.4-1.5zM192 40.1c0 1.6.5 2.9 1 2.9.6 0 1-.9 1-2 0-3.7 1.8-2 2.9 2.7.7 2.7 1.4 5.6 1.7 6.5.4 1.2 0 1.8-1 1.8-1.2 0-1.6-1-1.6-3.4 0-1.9-.4-3.8-1-4.1-.6-.4-1 1.1-1 3.7-.1 3.7-.2 4.1-1.4 2.6-1.2-1.6-1.4-1.6-2.9-.1-1.6 1.6-1.8 1.6-3.2-.2-1.4-2-1.4-1.9-1.5.3 0 3.2-2 1.7-2.1-1.6v-2.7l-1 2.4c-1.2 3.1-2.8 1.7-3.6-3.2-.4-2.4-.2-3.7.6-3.7.6 0 1.1 1 1.1 2.2.1 2.3.1 2.3 1.6.3 1.4-1.9 1.6-1.9 2.8-.3 1 1.3 1.5 1.5 2.5.5.9-.9 1.3-.7 1.7 1.1 1.2 4.4 2.6 1 1.9-4.5-.5-3.9-.3-5.3.4-4.9.6.4 1.1 2 1.1 3.7zm9.4 4.1c1.9 7.9 1.9 7.8.7 7.8s-4.1-9.8-4.1-13.6c0-4.3 1.5-1.7 3.4 5.8zm41 1.2c1.2-1.5 1.4-1.4 2.4 1.6 1.7 4.7 1.5 5.6-.7 3.6-1.5-1.3-2-1.4-2.4-.4-.8 1.8-2.4-.6-3.8-5.5-.5-2.1-1.2-4.6-1.5-5.5-.3-.9.7.5 2.1 3.1 2.4 4.4 2.8 4.7 3.9 3.1zm-35.8 1.4c1.7 4.1 1.8 5.2.1 5.2-1.3 0-3.7-7.4-3.6-11.3 0-2.1.1-2.1 1.1.3.5 1.4 1.6 4 2.4 5.8zm43.3 1.2c1.5 4.4-.6 4.7-2.4.4-.8-2-1.5-4.1-1.5-4.6 0-1.9 2.8 1.2 3.9 4.2zm16.6-.4c2 4.8 1.9 5.4-.5 2.5-1.8-2.1-2.8-6.1-1.5-6.1.3 0 1.2 1.6 2 3.6zm-97.9 4c-1.1 2.9-2.6 1.3-2.6-2.9l.1-4.2 1.5 2.8c.9 1.6 1.3 3.5 1 4.3zm90.2-3.2c1.2 2.8.5 4.1-1.5 2.5-1.4-1.3-1.8-4.9-.5-4.9.5 0 1.4 1.1 2 2.4zM177 50.7c0 .7-.4 1.3-1 1.3-.5 0-1-1.2-1-2.8 0-2.1.2-2.4 1-1.2.5.8 1 2.1 1 2.7zM278.1 49c3.1 1.7 2.2 2.7-2.6 2.6-2.7-.1-4.5-.6-4.5-1.3 0-2.2 4-2.9 7.1-1.3zm25.1 10.6c6.4.8 8.7 2.4 6.3 4.4-1.9 1.6-66.1 3-135.8 3-45.4 0-54.7-.4-54.7-2.1 0-.4 2-1.1 4.5-1.5 2.8-.4 4.5-1.1 4.5-2 0-.8.1-1.5.3-1.6 2-1.4 163.8-1.6 174.9-.2zM147.4 98c.8.8.4 1.8-1.4 3.3-2.4 2.1-3.4 2.2-17 2.1-17.7-.3-16.7-.1-15.2-1.6.7-.7 1.2-2 1.2-3 0-1.5 1.2-1.8 9.3-2.1 12.4-.5 21.8 0 23.1 1.3z"/>
  <path d="M159 91.4c-1.5 1.5-1.3 12.3.3 13.3 2.1 1.4 39.9.3 42.9-1.3 2.5-1.3 6.8-6 6.8-7.3 0-.3-2.1-1.8-4.6-3.3l-4.5-2.8-19.9.2c-11.7.1-20.4.6-21 1.2zM226.9 92.7c-.5 1.4-.9 3.5-.9 4.9 0 1.3-.4 2.4-1 2.4-.5 0-1-1.6-1-3.5 0-4.4-1.3-4.9-8.5-4l-5.5.6V98c0 3.8.4 5.2 1.8 5.9 2.4 1.3 55.4 1.7 59.4.5 2.3-.7 2.7-2.4 2-8.5l-.7-5.4-22.3-.1h-22.4l-.9 2.3zM174.8 125c-5.9 3.7-8 6.9-7.6 11.2.4 4.3 3.8 4.7 4.9.6.4-1.5 2.8-5.5 5.3-8.8 5.1-6.7 4.4-7.4-2.6-3zM257 125.4c0 .3 1.1 2.5 2.3 4.9 1.3 2.4 2.6 5.4 3 6.6.9 3.5 3 2.6 2.3-1-.3-1.7-.6-4.4-.6-5.9 0-1.9-.7-3-2.5-3.8-2.7-1.2-4.5-1.5-4.5-.8zM179.1 129.7c-2.9 3.5-3 4.3-3.3 23-.4 18.8-.8 18.1 9.1 16.7 3.1-.5 7.2-.8 9.1-.9h3.5l.3-16.4c.3-18.7.3-18.7-8.3-22.7-6.4-3-7.9-3-10.4.3zm10.8 13.9c1.7 1.4 3.1 2.9 3.1 3.3 0 .4-2.1 1.3-4.7 1.9-4.2 1.2-4.9 1.1-6-.4-1.7-2.4-1.6-3.1.7-5.4 2.6-2.6 3.2-2.5 6.9.6zM210.7 128.2c-3.3 2.6-4.3 7.8-4.2 23.8v15.5l10.8.3c10.2.3 10.7.2 10.7-1.8 0-1.1-1.6-3.8-3.6-6-3-3.3-4.5-4.1-8.5-4.6s-4.9-1-4.9-2.6c0-3.1 1.7-5.4 4.9-6.8 4.2-1.7 5.7-.8 6.5 3.9.7 4.4 2 5.8 3.9 4.3 1-.9 1.5-12.9.8-20.5-.1-.8-8.3-4.7-12.7-6.1-1.1-.3-2.8 0-3.7.6zM238.8 130.7c-2.2 3.6-2.3 4.8-2.3 20.4v16.6l10.4.7c12.8.8 14 .2 12.2-6.8-.6-2.5-1.1-8-1.1-12.3 0-4.3-.3-10.1-.6-13l-.7-5.2-6.3-2.1c-3.5-1.1-7-2-7.8-2-.8 0-2.5 1.7-3.8 3.7zm12.3 17.1c.4.4 1 2.1 1.3 3.7.6 2.8.3 3.4-4.1 6.2-2.6 1.7-5.1 3-5.4 2.7-1-.6-2.1-10.8-1.3-12.8.6-1.5 1.4-1.7 4.8-1.2 2.3.4 4.4 1 4.7 1.4zM253 171.2c-3.2.5-21.2.8-42.7.5-31.2-.4-37.4-.2-38.4.9-.9 1.1-.5 2.7 1.9 7.2 3.1 5.7 3.1 5.7 8.1 6 6.4.4 6.7-1.2.5-3.9-7.4-3.3-5.3-4.3 10.2-5 34-1.6 66.9-.8 66.1 1.5-.2.6-2.2 2.4-4.5 4.1-4.8 3.5-5.2 5.2-1.5 6.6 5.1 1.9 6.4.9 9.6-7 2.6-6.4 2.8-7.6 1.6-9.7-1.3-2.6-2.3-2.7-10.9-1.2zM332.7 172.5c-2.7 2.7-4.2 9.1-2.9 12.1 1.9 4 1.6 4.3-5 4.6-4.8.2-6.3.7-6.3 1.8 0 1.2 2.2 1.6 11.6 2 10.6.5 11.9.7 15.5 3.2 2.2 1.5 4.7 4 5.6 5.5 1.7 3 3.9 12.9 3.2 14.8-.3.6.4 2 1.6 3 1.1 1 2 2.2 2 2.7 0 1.5-6.7.8-11.4-1.2-4.2-1.9-4.6-2.4-4.6-5.5 0-1.9.2-3.5.5-3.5 2 0 5.5 2.7 5.9 4.6.4 1.5 1.4 2.4 2.6 2.4 2.5 0 2.5-.1-.3-7.5-2.5-6.9-7.4-14.2-10-15.1-1-.3-2.8.1-4 1-8.1 5.9-9.4 6.5-12.8 5.6-5.4-1.3-11.9-1.9-12.4-1-.2.4.1 3.1.8 5.9l1.2 5.3 4-.6c2.8-.4 6 .1 10.4 1.7 5.9 2 6.6 2.6 7.3 5.7 1.6 6.3 1.6 6.3 4 4.6 1.2-.9 2.6-1.6 3-1.6.4 0 2.3 2.4 4.3 5.2 1.9 2.9 5.5 8 8 11.3 2.4 3.3 4.5 6.9 4.7 8 .2 1.3 1.2 2.1 2.8 2.4 4.4.6 5.7 5.1 1.5 5.1-3.4 0-3.1 2 .8 5.2 5.2 4.1 9.4 16.2 4.7 13.3-.6-.4-2.5-3.1-4.1-6.1-1.7-3-4-5.9-5-6.5-1.6-.8-1.8-1.7-1.4-4.3.7-3.6.7-3.6-12.4-14.2-7.7-6.2-18.2-10.3-26.6-10.4-4.6 0-12.5 4.2-17.5 9.4-3.5 3.6-5.1 4.6-7.7 4.6-2.8 0-3.5.5-4.7 3.4-.8 1.9-3 5.8-5 8.7-2 3-3.6 5.9-3.6 6.6 0 1.4 4 3.7 8.2 4.7 2.4.5 3.1.1 5.3-3.5 2.7-4.2 5.2-4.8 4.7-1.1-.5 3.4 2.2 2.7 5.6-1.5l3-3.8 2.3 2c1.2 1.1 2.4 1.5 2.6 1 1-2.8 4.5-7.6 6.5-8.8 1.3-.8 4.7-1.7 7.6-1.9 4.4-.4 5.6-.2 7.6 1.7 1.6 1.5 3.3 2.1 4.9 1.8 1.6-.3 4.3.8 8.7 3.6 3.5 2.3 6.6 4.3 6.8 4.5.2.2-.8 3.7-2.3 7.7-4.3 11.9-3.5 22.4 1.1 15.4 1-1.5 2.7-5.4 3.9-8.8 2.4-7 5.3-8.7 4.5-2.7-1 7.8-.5 18.3.8 18.8.7.2 1.6-.5 1.9-1.7 1.4-5.2 1.9-1 1.5 11.1-.3 7.3-.4 25.3-.2 40 .2 25 .1 26.7-1.6 28.2-4.1 3.4-9.1 6.7-12.4 8.2-1.9.9-5.4 3.4-7.6 5.6-2.3 2.2-7 5.4-10.5 7.2-18.4 9.3-26.9 14.6-23.1 14.6 3.5 0 31.3-13.7 38.9-19.2 2.6-2 7.9-5.4 11.6-7.7 11.2-6.7 28-21.4 36.5-31.8 16.5-20.4 19.2-24.3 26.5-38.3 8.8-16.7 11.6-23.7 16.3-41 4-14.4 5.5-30.8 5.8-62l.1-18.5h-30c-16.5-.1-31.1-.3-32.5-.5-1.7-.3-2.6-1.3-2.8-2.8-.4-2.8-.5-2.8-7.6.8-6.9 3.5-11.5 3.8-18.5 1.1-4.8-2-4.9-2-5.4 0-.4 1.4-1.4 1.9-4.1 1.9-3.5 0-3.6-.1-3.6-4 0-4.7-1.7-8.5-5.3-11.8-2.2-2.1-2.6-2.2-4-.7zm36.3 22.9c0 1.9-4.7 5.6-7.1 5.6-1.5 0-1.9-.8-1.9-3.5 0-3.5 0-3.5 4.5-3.5 3.2 0 4.5.4 4.5 1.4zm72.5-.1c1.8 1.4 1.9 1.9.8 5.9-.6 2.3-1.6 5.5-2.2 7l-1 2.7-12.3-.5c-6.7-.3-12.4-.7-12.6-.9-.2-.2.4-1.5 1.4-3 2.2-3.4.9-4.5-5.8-4.5-2.7 0-4.8-.4-4.8-.8 0-1.8 2.6-3.2 6-3.2 2.1 0 4.1-.7 5.1-1.8 2-2.4 22.4-3.1 25.4-.9zm-49.6 1.3c.3.2-.5 2.4-1.7 4.8-3.1 6.1-2.9 8 1 9.1 6.1 1.9 5.9 3.7-1.5 11.4-3.7 3.8-6.7 7.6-6.7 8.4 0 1-1.1 1.7-2.7 1.9-2.7.3-2.8.5-3.1 7.1-.2 4.8-.7 6.7-1.5 6.4-.8-.3-1.2-3.8-1.2-12 .1-10.9-.4-13.3-2-10.7-1.4 2.3-2.6-.4-1.9-4.4.4-2.2.6-6.1.5-8.4l-.1-4.4 3.8.7c4.7.8 6.8-1.2 6.3-6.1-.4-4.9.4-5.6 5.7-4.8 2.6.4 4.9.8 5.1 1zm-26.6 10.6c1.7 2.7 2.2 11.8.8 11.8-1.4 0-2.5-4.5-1.7-7.4.4-1.5 0-2.8-.9-3.6-.8-.7-1.5-1.6-1.5-2.1 0-1.7 2-.9 3.3 1.3zm70 10.3c2.7.4 3.7 1.1 3.7 2.4 0 1.1-.7 2.2-1.6 2.5-.9.3-9 .9-18 1.3-11.9.4-16.4 1-16.4 1.8 0 1.4 4.4 2.5 9.9 2.5 2.2 0 5.1 1 7.4 2.5 6.1 4.2 4.7 5.6-4.2 4.4-3.8-.5-6.4-.4-8.6.5-4.3 1.8-19.4 12.8-19.4 14.2-.2 2.6 3.2 2.3 7.2-.6 10.8-7.7 42.9-8.9 40.1-1.5-.8 2.1-3.8 1.9-8.4-.5-4.4-2.2-6-2.5-6-.9 0 .5 2.7 4.2 6 8.1 3.3 4 6 7.9 6 8.9 0 3.8-3 2.6-9.2-3.5l-6.3-6.2-11.3-.1-11.2-.1-5.5 4.5c-3 2.5-5.5 4.8-5.5 5.2.1 1.9 2.1 3.2 7 4.4 4.8 1.3 5.6 1.8 6.1 4.3.3 1.9 1 2.8 2 2.5 4.5-1.2 6.6-1.2 11.9-.1 5.8 1.2 5.9 1.3 5.3 4.1-.6 3.2.7 3.8 2.7 1.4 1.6-1.9 4.4-1.9 6 0 1.4 1.7.9 8.7-1 15.4-1.5 4.9-10 20.3-11.6 20.8-1.2.4-2.8-2.7-6-12.2-1.3-3.9-4.5-10-7-13.8-2.6-3.7-5.7-9.3-7-12.5l-2.3-5.7-8.1-.5c-9.2-.6-11.3-2-8-5.5 1.4-1.5 2-3.5 2-6.8 0-2.8 1-7.2 2.5-10.7 1.4-3.3 2.5-7.3 2.5-9 0-3 0-3 5.9-3 7.7 0 9.6-1.9 5.8-5.8-1.5-1.6-2.7-3.3-2.7-3.8 0-.6 1.8-2 3.9-3.2 3.5-2 7.4-3.6 21-8.7 2.9-1.1 4.4-1 10 .5 3.6 1 8.3 2.1 10.4 2.5zm3.3 13c2.3 3.5.8 5.2-2.2 2.4-1.3-1.2-3.4-2.3-4.6-2.5-3.1-.3-3-.3-2.3-1.4.3-.6 2.2-1 4-1 2.6 0 3.9.6 5.1 2.5zM337.3 242c7.6 3.3 10.1 4.9 11.3 7.2 1.8 3.5.9 5.2-1.2 2.4-1.4-2-11-5.6-14.9-5.6-6.4-.1-13.5-4.1-13.5-7.6 0-2.7 7.3-1.2 18.3 3.6zm-21.4.3c.8 1.1.7 1.8-.7 3.1-2.2 1.9-11 5.1-11.9 4.2-1.3-1.3 7.4-8.6 10.3-8.6.6 0 1.7.6 2.3 1.3zm58.1 9.9c0 1.5-.4 2.8-.9 2.8-.8 0-2.1-4.8-2.1-7.9.1-3 3 2 3 5.1zm38.6 9.4c9.2 5.6 13.2 8.8 11.2 9.2-.9.2-4.5-1.7-7.9-4.2-3.5-2.5-6.7-4.6-7.1-4.6-1.5 0-.8 1.6 1.7 4 3.2 3 3.4 5.5.3 4.5-1.3-.4-4.1-.8-6.3-.9-3.3-.1-4-.5-4.5-2.6-.4-1.8-1.4-2.6-3.3-2.8-3.6-.4-3-2.2 1.4-4.4 5-2.6 7.8-2.2 14.5 1.8zm-23.7 17c1.7 1.3 2.2 2.4 2 5.3-.1 2-.1 4.7 0 6 .1 2.4.1 2.4 1.5.5s1.5-1.9 4 .5c1.6 1.5 2.6 3.5 2.6 5.3 0 1.5.9 4.5 2 6.5 1.1 2.1 2 4.7 2 5.9 0 1.2 1.2 4.7 2.6 7.9l2.6 5.7-3.1 6.2c-1.8 3.4-5.6 9.2-8.6 13-3 3.7-5.7 7.6-6 8.6-.9 2.9-10.5 10.1-12.9 9.8-2-.3-2.1-.9-1.9-12.3.3-27.5.5-31 1.4-35.9.6-2.8 1.4-10.7 1.8-17.6.4-6.9 1.3-13.5 2-14.8 1.4-2.6 4.7-2.9 8-.6z"/>
  <path d="M379.4 211.2c.3 1.3.6 3.3.6 4.6 0 3.3 2.7 3.8 5.6 1.2 1.3-1.3 2.4-2.7 2.4-3.1 0-1-6.4-4.9-8-4.9-.8 0-1 .8-.6 2.2zM210.4 190.4c-2.1.9-3.3 2.3-3.6 4-.7 3.3.3 4 3.7 2.4 3.6-1.6 5.3.1 3.7 3.7-1.3 2.8-2.8 3.1-5.6 1-1.1-.8-2.9-1.5-3.9-1.5-1.7 0-1.9.6-1.5 5.2.4 3.7 0 6.3-1.3 9.4-3.3 7.4-3.9 12.8-1.9 17.3 2.7 5.9 18.8 17.9 22.3 16.5.9-.3 1.9-1.9 2.2-3.5.4-1.7 2.3-4.3 4.7-6.2 2.2-1.7 5.1-4.1 6.5-5.3l2.6-2-2.7-8c-1.5-4.4-3-11.1-3.4-14.9l-.7-7h-5c-4.7 0-5-.2-5-2.5 0-2.1.4-2.4 2.5-2.1 5.7.8 6.5.6 6.5-1.4 0-1.4-1.4-2.7-4.5-4.3-5-2.5-11-2.8-15.6-.8zm11.1 26.3c3.1 3.4 3.1 5 .3 8-2.7 2.9-5.5 2.9-7.9 0-2.4-2.9-2.4-5.6.3-8.4 2.8-3 4.2-2.9 7.3.4zM115.3 215.9c-2.9 1.8-3.2 2.4-3.8 9.7-1 10.2.2 27.3 2.1 30.1 1.3 2 1.3 2.3-.1 2.3-2 0-1.9 1.7.3 2.9 1.3.8 1.4 1 .2 1.1-.8 0-2 1-2.5 2.2-.6 1.3-1.7 2.3-2.6 2.3-.9 0-2.3.6-3.2 1.4-.9.7-2.1 1-2.8.6-.6-.4-1.5-.1-2 .6-.6 1-.9.6-.9-1.4 0-1.9-.4-2.7-1.2-2.4-.9.3-1.3 2.8-1.2 8.1 0 7 .2 7.9 2.5 9.9 4 3.5 5 5.2 6.5 11.8.8 3.5 2 6.9 2.6 7.6.9 1.1.8 1.8-.4 2.9-1.4 1.4-1.8 1.3-4.4-.9-2.8-2.4-2.8-2.6-1.8-7.6.8-4.1.8-5.4-.3-6.2-1-.9-1.7-.8-2.9.2-1.3 1.1-1.5 2.5-1 7.9.4 3.6.7 7.7.8 9.2.1 1.9.6 2.8 1.7 2.8.9 0 2.2 1.2 2.8 2.7 1.4 3.2-.1 8.7-4.1 15.1-2.2 3.5-2.3 4.2-1.5 14.7.7 9.9.2 20.3-1.7 37.6l-.7 5.7 5.9 3.9c5.9 4 22.5 11.9 29.8 14.3 2.2.7 5.4 2.1 7.1 3.1 7.4 4.4 28.9 10.3 48.5 13.5 6.1.9 19.3 1.8 31.5 2.1 18 .4 23.1.2 36-1.7 26.3-3.8 52.5-10.6 52.5-13.7 0-1.6-1.5-1.6-4.2-.2-2.9 1.6-5-1-7.9-9.9-1.2-3.7-4-10.4-6.2-14.9-3.3-6.8-5.6-9.8-13.2-17.2-5.1-4.9-11.2-9.9-13.6-11.2-8.2-4.1-20.1-8.9-22.3-8.9-2.7 0-4.6-1.8-4.6-4.2 0-1.2-.8-1.8-2.4-1.8-1.9 0-2.6.7-3.1 3-.7 3.2-3 4.4-6.9 3.4-3.2-.8-4.4 1.6-2.6 5.1 1.2 2.2.7 4.5-1 4.5-.4 0-2.1-1.2-3.7-2.8-3.8-3.5-12.7-7.7-14.7-6.9-1.3.5-1.6 2.4-1.6 9.5 0 7.3-.3 9.2-1.8 10.5-2.4 2.2-3.2 2.1-3.2-.1 0-4.2-2.2-9.3-4.5-10.4-3.1-1.4-4.3-7.2-2.1-9.7 2.4-2.6 1.9-5.4-1.5-9.7-4.6-5.9-5.9-6.7-8.4-5-2.1 1.4-2.5 1.1-7.9-5.5-3.1-3.8-6.8-7.4-8.1-7.9-3.4-1.3-3.1-2 .8-1.7 5.4.4 4.4-1.8-1.4-2.6-2.9-.4-7.8-1.9-10.8-3.2-2.9-1.4-7.1-2.8-9.2-3.1-4.4-.7-5.2-2.9-1.4-3.6 3.3-.7 10.9.8 14.8 2.7 3.3 1.6 5.7 1.9 5.7.7 0-.4-1.1-2.5-2.4-4.6-2.2-3.6-2.3-4.2-.9-6.3 1.9-2.9 3-13.8 1.4-14.7-1.8-1.1-8.1 4.4-8.8 7.6-.5 2.4-1 2.9-2.7 2.4-6.5-1.9-10.3-1.8-14.4.3-5.3 2.7-6 2.7-6.8-.7-.8-3-2.2-5.2-3.5-5.2-1.4 0-1.1 5.6.4 6.8 1.1.9 6.1 2.5 12 3.7 1.8.4 2.7 1.2 2.7 2.5 0 1.1-.7 2-1.5 2-2.6 0-12.7-2.9-14.1-4.1-1.9-1.6-4.4-.4-4.4 2.1 0 1.1-.4 2-1 2-.5 0-1 .8-1 1.7.1 1.5.4 1.4 2.1-.6 1.4-1.8 2.3-2.1 3.1-1.3 1.7 1.7-1.7 6.2-4.7 6.2-1.5 0-2.5-.6-2.5-1.4 0-.8-.5-1.6-1-1.8-1-.3-3-10-3-14.5 0-2.9 6.4-6.7 11.5-6.8 2.2-.1 8.3-1.9 13.5-4.1 10.3-4.2 9.4-4.1 35.2-3.2 4.7.2 9-.1 9.5-.5.4-.5-1.5-2.8-4.2-5.2-6.5-5.8-13-7.4-21.8-5.6-4.8.9-8.4 2.7-16 7.8-9.6 6.4-9.9 6.6-15 6-2.9-.3-6.1-.1-7.1.5-3 1.7-4.1-.5-2.7-5.2 1-3.5 1.5-4 4.3-4 5.3 0 10.8-2.2 15.3-6.2 4.7-4.2 6.1-4.5 9.1-2.3 2.9 2.2 4 1.9 10.1-2.5 3-2.1 7.7-4.6 10.4-5.5 4.7-1.6 4.9-1.8 5-5.3 0-3.3.1-3.5 1-1.4.5 1.3.8 4 .7 6-.2 7.1 3.4 10.1 10.5 8.8 2.1-.4 4-.1 5.2.8 3.4 2.5 5.4.4 5.7-6.2.2-4.2.7-5.7 1.8-5.8.8-.1 2.4-.2 3.6-.3 2.5-.1 6.2-2.7 5.2-3.6-.4-.4-2.4-1.1-4.5-1.5-2.1-.5-7.6-2.2-12.3-3.9-4.8-1.7-10.5-3.1-13.1-3.1-3.2 0-5.1-.6-6.3-1.9-1-1.1-4-2.9-6.7-4.1-2.8-1.2-4.9-2.6-4.6-3.3.5-1.6 6.6-2.2 8-.8 1.6 1.6 5 1.4 4.4-.3-.3-.8.1-1.7.9-2 2.6-1 1.5-2.2-4-4.5-4.7-1.9-5.9-2.1-10.2-1.1-7.2 1.6-18.4 7.1-18.4 8.9 0 .9-1.5 2.6-3.3 3.7-2.3 1.5-3.7 3.5-4.8 7-2 6.6-4.3 6.6-4.7-.1-.2-3.1-.9-5.5-1.9-6.2-2.7-2.1-.8-4.4 3.4-4.1 3.2.3 3.8 0 4.7-2.3.8-2.3.4-3.3-2.9-7.3-2-2.5-4-4.6-4.4-4.6-.3 0-2 .9-3.8 1.9zm40.6 24.5c1.9 7.5 1.6 8.1-4 10.6-5.8 2.4-8.8 1.5-4.3-1.5 2.3-1.5 2.6-2.2 2.2-6-.4-3.1-.1-4.8 1-5.9 2.6-2.6 3.9-1.9 5.1 2.8zm-12.3-1.4c.8 0 1.4.7 1.4 1.5 0 2-12 7.9-13.4 6.5-1.2-1.2 7.4-9.1 9.2-8.5.8.3 2 .5 2.8.5zm33.8 12.9c1.8 2 1.3 4.6-1.1 5.5-2.2.9-3.3-.2-3.3-3.3 0-4.4 1.6-5.3 4.4-2.2zM150.9 296c.9.5-1 1-4.8 1.5-6.4.7-9.1-.2-7.6-2.5.8-1.2 9.7-.5 12.4 1zm-19.1 7.6c1.6 1.1 2.2 2.4 2.2 4.9 0 3.4.1 3.5 4 3.5h4.1l-.6 3.4c-.6 2.8-.2 3.8 2.2 6 1.5 1.4 5.8 4.2 9.6 6.2 3.7 1.9 7.5 4.6 8.4 6 .9 1.4 2.8 3.1 4.3 3.9 3 1.6 10.6 12.2 11.7 16.3.5 2.1-.2 3.2-4.1 6.6-3.7 3.3-5.1 5.3-6.5 10.1-2 6.4-4.4 8-4.9 3.3-.2-1.6-.6-2.8-1-2.8-1.4.1-9.6 15.7-12.7 24-4 10.8-4.7 10.9-19.9 4.5-16.1-6.9-16.6-7.5-19-23.5-2.6-18.1-3-27.7-1.2-36 3.6-17.1 9.4-11.5 13.1 12.8 2.7 17.5 3.6 21.3 4.7 20.6.7-.5.8-3.9.3-10.8-.4-5.6-.8-13.3-.9-17.1-.1-6.5-.4-7.4-4-12.3-2.3-3.2-3.6-5.9-3.3-7 2-6.3 3.7-9.7 4.9-9.9.7-.2 2.5 1.3 3.9 3.2 2.4 3.2 2.6 3.9 1.7 8-.7 3.5-.6 5.8.8 10.2 1 3.5 1.7 9.3 1.7 14.6 0 5.8.4 8.6 1.1 8.4.7-.3 1.1-5 1.1-13.7v-13.3l2.9-.8c3.3-.9 4.6-.4 4.6 1.6 0 .8-.7 1.1-1.8.9-1.5-.5-1.7.3-1.9 5.8-.1 4.6.4 6.9 1.7 8.8 1.9 2.6 7 21.9 7 26.4 0 3.8 1.6 3.2 3.1-1.1 1.6-5 .6-19.2-2.1-27.6-1.2-3.8-1.9-7.1-1.7-7.4 1.3-1.2 9.3 11.9 11.9 19.2 2.7 7.9 5.1 10.5 6.5 6.9.3-.9-.1-3.1-.9-4.8-.9-1.7-2.3-5.2-3.2-7.8-1-2.6-2.8-6.2-4.1-8-1.4-1.8-4-5.6-6-8.5-4.7-7-6.9-8.4-11.8-7.6-4.8.7-5.7-.4-5.7-7.3 0-4.5-3.2-14.4-4.6-14.4-.3 0-1.6.7-3 1.7-2.4 1.5-2.6 1.5-4.2-.1s-1.6-1.8.1-2.7c1-.6 2.2-2.2 2.7-3.5.8-2 1.4-2.3 3.7-1.8 1.6.3 3.8 1.3 5.1 2zm17.9 14.6c2.5 2.4 3 3.8 1.1 3.8-1.6 0-4.8-3.1-4.8-4.7 0-1.9 1-1.6 3.7.9zm28.3 19.2c0 1.2.5 3.7 1.1 5.4.6 1.7.9 3.9.7 4.9-.3 1.3-1.5.1-4.6-4.4-3.8-5.6-4-6.3-2.5-7.2 3.1-1.8 5.3-1.3 5.3 1.3zm5.9 17.7c3.6 4.5 5.4 14.9 2.6 14.9-1.7 0-2.6-2-4.5-9.5-.7-2.8-1.4-5.8-1.7-6.8-.8-2.6.9-1.9 3.6 1.4zm58.1 11.6c10.2 3.5 24.8 15.2 28.6 23.1 1.5 3.2 1.5 3.5-.7 5.8-1.2 1.3-3.9 2.8-5.8 3.3-6.8 1.8-21.6 3-37.1 3.2-14 .1-16.5-.1-26-2.6-9-2.4-10.9-3.3-13.6-6.3-2.3-2.5-3.6-3.3-5.1-2.8-1.6.5-2.2-.1-3.3-3.4-1.3-4-1.3-4.1 2.1-7 3.9-3.3 10.7-6.8 15-7.7 1.6-.3 2.9-.9 2.9-1.4 0-.5.9-.9 1.9-.9 1.1 0 2.2-.4 2.5-.9.3-.5 2.6-1.2 5.1-1.6 2.5-.3 6.3-1.3 8.3-2 4.5-1.7 18.4-1 25.2 1.2z"/>
  <path d="M68.9 226c-4.4 3.9-6.6 4.4-12.9 3.1-2.8-.6-6.3-1.1-7.7-1.1-2.4 0-2.5.1-1.8 4.6 1 6.9 1 6.9 7.8 6.9 9.5.1 20 5.6 13.7 7.2-1.1.3-2 1.4-2 2.3 0 2.7 3.6 3.5 6.7 1.5 2.4-1.6 2.7-1.6 5.2.2 2.1 1.6 9.7 13.4 11.4 17.8.2.5 1.5 0 2.9-1.3 1.3-1.2 3-2.2 3.6-2.2.7 0 1.2-.2 1.2-.4s.3-1.1.6-2c.4-1 .1-1.6-1-1.6-2.5 0-.8-2.7 3-4.5 1.9-.9 4.2-1.5 5.1-1.3 1.4.3 1.6-.4 1.4-4.2-.1-2.5.5-9.1 1.3-14.7 1.7-11 1.4-13.3-1.4-13.3-2.7 0-3.7 1.9-4.3 8.1-.6 6-3 11.9-4.9 11.9-.6 0-2.6-1.2-4.5-2.6l-3.4-2.6.3 4.4c.2 3.5.7 4.4 2.5 4.6 2.7.4 3.5 2.5 1.9 4.7-1.1 1.6-1.7 1.6-5.2.4-2.1-.8-5.8-2.7-8.1-4.2-3.7-2.4-4.3-3.3-4.3-6.3v-3.5l3.1 1.6c1.6.9 3.3 2.4 3.6 3.3 1.1 3.2 2.5 4.3 3.8 3.2 3.1-2.5-8.5-23-12.9-23-.7 0-2.9 1.4-4.7 3zM47.5 259.4c-2.7 1.3-6.9 4.4-9.2 7-3.4 3.7-4.8 4.6-7.6 4.6-2.7 0-3.6.5-4.6 2.7-.7 1.6-3 5.5-5.2 8.9-4.2 6.5-4.3 8.5-.3 10.3 4.4 2 8.2 1.4 10.1-1.7 2.6-4.1 3.7-4.5 4.3-1.5.8 4.2 2.8 3.8 5.7-1.1 3.1-5 4.2-5.6 5-2.6.8 3 2.7 2.4 4.6-1.5 2.4-5 7-7.5 13.8-7.5 3.8 0 6.1.5 6.9 1.5.7.8 2.5 1.5 4 1.5s3.9.9 5.3 2c1.4 1.2 4.7 3 7.2 4.1 4.6 2 5.2 2.8 3.6 4.4-2.2 2.3-6.1 16.8-5.5 20.1.3 1.9 1 3.4 1.5 3.4 1.1 0 5.9-7.1 5.9-8.8 0-.7.7-2.7 1.6-4.4 2-3.9 2.6-13.5.9-15.1-.8-.7-1.1-2.6-.8-4.8.5-3.6.4-3.7-9.6-11.2-12.7-9.6-14-10.2-22.8-11.6-9.1-1.4-8.9-1.4-14.8 1.3zm25.8 7.4c7.2 3.4 10.6 5.7 11.6 7.5 1.8 3.4.5 4.9-1.7 1.9-1.9-2.4-5.5-3.7-15.2-5.3-10.7-1.7-17.9-8.9-8.9-8.9 2.8 0 7.2 1.5 14.2 4.8zm-20.6.8c.7 1.8-.8 3-7.7 5.6-6 2.4-6.9.9-2-3.5 4.3-3.9 8.6-4.9 9.7-2.1zM189.5 263.6c-1.4 1.1-3.2 1.4-5.7 1-2.1-.4-3.8-.3-3.8.1.1 1.3 8.8 10.3 9.9 10.3.6 0 1.1-1.2 1.1-2.8 0-1.5.9-4.1 1.9-5.9 2.7-4.3.7-5.9-3.4-2.7zM324.9 263.4c-2.5.7-7.3 2.6-10.5 4.1-3.2 1.5-7.7 2.8-9.9 2.9-3.6.1-4 .4-4.3 2.9-.3 2.7-.4 2.7-5.3 2.1-4.1-.6-4.9-.4-4.9 1 0 .9.5 1.6 1 1.6 1.5 0 1.2 2.6-.5 4-.8.7-1.5 2.1-1.5 3.2s-1.1 3.4-2.5 5.2c-4.3 5.7-5.8 10.3-4.4 14.3 1.3 3.9 1.5 3.9 9.1-1 3.9-2.5 6.5-5.3 9.8-10.6 2.5-4 5.5-8.5 6.7-9.9l2.3-2.7-.6 4.6c-.5 3.6-.3 4.7.9 5.2 1.1.4 2.4-1.3 5.1-6.9 4.1-8.7 5-9.2 17.9-10.4 10.6-1 16.2-3.4 16.2-7 0-1.7-.7-2.6-2.5-3.1-4.1-1.1-17.2-.8-22.1.5zm21.1 2.1c2.4 2.8-.2 3.4-8.5 2.1l-8-1.3 4.5-1c6.6-1.6 10.6-1.5 12 .2z"/>
  <path d="M332.7 278.2c-1.5 1.9-5.5 5.1-9.1 7.2-12.5 7.3-24.6 24.5-24.6 35.1 0 6.3 2.6 12.7 5 12.3 1.1-.2 1.7-2.2 2.2-8 .5-5.6 1.5-9.3 3.9-14 3.8-7.5 11.9-18.8 15-20.6 2.6-1.7 4.7-.1 2.4 1.8-3.3 2.7-.4 16.5 3.5 16.5 1.6 0 1.8-2.6.6-8.6-.6-2.7-.4-4 .8-5.2.9-.8 1.6-2.1 1.6-2.7 0-1.7 3-7.1 6.3-11.3 1.6-2.1 2.7-4 2.4-4.3-.2-.3-2-.7-3.9-1.1-3.1-.5-3.8-.1-6.1 2.9zM141.1 279.1c-8.6 3-10.1 4-10.1 7.1 0 2.4.7 2.3 9.5-1.2 4.2-1.7 8.8-3 10.4-3 3.7 0 5.9-2.4 4.1-4.5-1.8-2.1-4.3-1.8-13.9 1.6zM165.1 282.4c-1.6 1.9-3.3 16.8-2 18.1.5.5 2.5 1 4.3 1.2 3.7.2 9.7 3 16.2 7.4 4 2.7 8.4 10.3 8.4 14.3 0 1.9-3.7 2.1-9.2.5-4-1.1-5.1-2.9-1.8-2.9 3.2 0 2.4-1.2-3.3-5-3.1-2.2-6-5.2-7.3-7.5-1.7-3.3-2.6-4-5-4-4.4 0-4.3 3.3.3 8.2 2.1 2.2 5.3 5.9 7.2 8.2 1.8 2.3 5.9 5.9 9 7.9 3.1 2 7.2 5 9.1 6.6 5 4.2 12.8 7.5 19.7 8.2 7.6.8 8.8-.6 3.4-4-3.6-2.3-3.9-2.8-3.2-5.3.4-1.6.4-4.2 0-5.8-.4-1.7-.7-5.6-.8-8.7-.1-4.7.2-5.9 1.8-6.8 1.3-.7 2.2-.7 2.6 0 .9 1.5 3.5 1.2 3.5-.4 0-.8-1.9-3.4-4.3-5.8-3.2-3.2-7.5-5.7-16.6-9.8-10.2-4.6-12.6-6.1-14.3-9-1.2-1.9-2.3-3.7-2.5-4-.2-.2-2.7-.7-5.6-1.1-2.9-.3-5.9-.9-6.8-1.3-.9-.4-2.1-.1-2.8.8zm8.7 6.4c.3.9-.3 1.3-1.9 1-1.2-.1-2.4-.9-2.7-1.6-.3-.9.3-1.3 1.9-1 1.2.1 2.4.9 2.7 1.6zm26.2 30.7c.9 1.1 2.2 1.4 4.1 1 3.1-.7 3.7.4 4.2 7.9.3 5.7-1.5 6.4-10.1 3.7-7.8-2.3-9.1-3.8-3.9-4.3 3.2-.3 3.2-.3 2.9-5.1-.4-4.8.6-5.9 2.8-3.2zM343.2 286.3c-.6.7-3.1 7.2-5.6 14.6-3.6 10.3-4.5 14.2-4 17.1.4 2.2.1 4.7-.6 6-1.7 3.2.1 4.8 3.2 2.8 2-1.3 2.5-3.1 4.1-13.7 1-6.7 2.9-15.1 4.2-18.8 1.4-3.6 2.5-7.2 2.5-7.9 0-1.7-2.4-1.8-3.8-.1zM57.1 289.9c-4.6 1.6-8.8 3.4-9.4 4-.6.6-3.3 1.1-5.9 1.1-4.6 0-4.9.2-5.5 3-.5 3-.6 3-5.4 2.4-4-.5-4.9-.4-4.9.9 0 .8.7 1.8 1.6 2.1 1.3.5 1.2.9-.5 2.8-1.2 1.2-2.1 3.1-2.1 4.2 0 1.2-1.6 4.6-3.5 7.6-3.8 5.8-4.4 10.3-2.1 13.6 1.4 1.8 1.6 1.8 7.3-2.1 4.4-3.1 7.2-6.3 11.8-13.3 3.3-5 6.3-9.2 6.8-9.2.4 0 .7 2 .7 4.5s.4 4.5.8 4.5c.5 0 2.6-3.4 4.7-7.6 2.1-4.1 4.5-7.9 5.4-8.4.9-.4 6.4-1.3 12.4-1.9 12.8-1.3 17-3 16.5-6.9-.4-3.2-2.6-4-12.8-4.1-5.9-.1-9.3.6-15.9 2.8zm25.7 2c.4 2.2.2 2.3-3.5 1.6-2.1-.5-6-1.1-8.8-1.5-4.1-.5-4.5-.8-2.5-1.3 5.2-1.3 6.6-1.5 10.5-1.4 3.4.2 4.1.6 4.3 2.6z"/>
  <path d="M68.8 303.1c-1.3 1.7-4.4 4.3-7 5.8-7.4 4.3-16.8 13.9-22.1 22.6-4.8 7.9-4.9 8.1-4.4 14.7.4 6.9 2.8 12.3 5 11.5.7-.2 1.5-3.2 2-6.6 1-8.3 3.7-15.1 9.7-24.6 4.9-7.8 9.3-12.4 11.8-12.5 1.7 0 1.5 1.5-.3 3-2.1 1.8-1.9 8.3.5 13 3.5 6.9 7.1 4.4 4.5-3.1-1.5-4.1-1.5-4.3 2.2-11.6 2.1-4.1 4.8-8.6 6-10 2.9-3 2.9-3.9.1-4.7-4.2-1.1-5.7-.6-8 2.5zM318 305c-.6 1.1-1.4 4.2-1.7 6.8l-.5 4.7 3.5.1c3.8 0 6.7 1.8 6.7 3.9 0 .7-1.6 2.2-3.5 3.4l-3.6 2.1-2.1-3.6c-2.1-3.6-2.2-3.6-3-1.3-1.3 3.5-.6 8.4 1.2 8.2 6.5-.9 10.9-2.8 12.4-5.3 2.3-4 2-6.8-1.4-14.4-3.2-7-5.9-8.6-8-4.6zM79.1 311.9c-2.8 5.1-9.1 26.7-9 30.5.1 2.2-.2 5.6-.6 7.3-.8 3.5.1 4.1 3.4 2.3 1.3-.7 2.1-2.6 2.5-6.7 1.3-11.4 3.7-22.5 6-27.6 1.2-2.9 2.1-5.8 1.9-6.5-.7-1.8-3.1-1.5-4.2.7z"/>
  <path d="M54.2 329.7c-1.6 3.2-2.3 11.4-.9 11.1.6-.1 2.9.4 5 1.1 4.6 1.6 4.8 3.9.6 7-3.5 2.6-5.4 1.8-6.4-3-.4-1.6-1.1-2.9-1.6-2.9-.9 0-1.3 10.3-.4 11.2.9.9 11.8-3.3 13.2-5 2-2.6 1.5-7.6-1.3-14.7-2.2-5.4-3-6.5-5-6.5-1.3 0-2.7.8-3.2 1.7zM66.3 362.7c-.5 1.2.8 3 4.7 6.4 6.5 5.8 15.5 11.3 16.9 10.4 1.9-1.1 1.2-5-1.1-6.4-1.3-.8-5.3-3.8-8.9-6.8-6.8-5.4-10.5-6.6-11.6-3.6z"/>
</svg>
